<svg width="491" height="491" viewBox="0 0 129.9 129.9" xmlns="http://www.w3.org/2000/svg">
  <g transform="translate(-10.2 -10.8)">
    <rect x="10.2" y="10.8" width="129.9" height="129.9" ry="33.1" fill="#fff"/>
    <g stroke-width="0">
      <rect transform="matrix(.6291 .7774 -.7832 .6218 0 0)" x="51.6" y="-9.5" width="13.3" height="7.4" ry="1.8"/>
      <rect transform="rotate(90)" x="20.1" y="-79" width="17.2" height="7.9" ry="1.9"/>
      <rect x="61.7" y="20.1" width="26" height="7.9" ry="1.9"/>
    </g>
    <path d="m82.88 76.74c-3.371-2.962-8.74-2.873-11.99 0.1985-1.798 1.699-2.644 4.052-2.299 6.391l-18.44 24.1 0.2581 0.2268 25.77-17.67c2.578 0.2289 5.129-0.6278 6.927-2.326 3.251-3.071 3.154-7.961-0.2174-10.92z" fill="red"/>
    <path d="m119.7 37.34-0.2697 26.49-26.39-0.1396" fill="none" stroke="#000" stroke-linecap="round" stroke-width="5.3"/>
    <path d="m121.2 87.39a45.22 45.78 0 0 1-42.27 41.21 45.22 45.78 0 0 1-46.87-35.74 45.22 45.78 0 0 1 27.45-52.51 45.22 45.78 0 0 1 55.55 19.14" fill="none" stroke="#000" stroke-linecap="round" stroke-miterlimit="0" stroke-width="5.3"/>
  </g>
</svg>
